<mxfile host="app.diagrams.net" modified="2021-06-02T16:07:04.432Z" agent="5.0 (Windows NT 10.0; Win64; x64) AppleWebKit/537.36 (KHTML, like Gecko) Chrome/91.0.4472.77 Safari/537.36 Edg/91.0.864.37" etag="_KqM2IpqtP7qbtHGz3Ay" version="14.7.0" type="github">
  <diagram id="q63Wy02tJCujxpieCgTo" name="第 1 页">
    <mxGraphModel dx="810" dy="489" grid="1" gridSize="10" guides="1" tooltips="1" connect="1" arrows="1" fold="1" page="1" pageScale="1" pageWidth="827" pageHeight="1169" math="0" shadow="0">
      <root>
        <mxCell id="0" />
        <mxCell id="1" parent="0" />
        <mxCell id="4p-bsqp2JKnxe7APMp1o-17" value="" style="rounded=0;whiteSpace=wrap;html=1;align=left;" vertex="1" parent="1">
          <mxGeometry x="395" y="539" width="90" height="60" as="geometry" />
        </mxCell>
        <mxCell id="4p-bsqp2JKnxe7APMp1o-30" style="edgeStyle=orthogonalEdgeStyle;rounded=0;orthogonalLoop=1;jettySize=auto;html=1;exitX=1;exitY=0.5;exitDx=0;exitDy=0;endArrow=block;endFill=1;" edge="1" parent="1" source="4p-bsqp2JKnxe7APMp1o-18">
          <mxGeometry relative="1" as="geometry">
            <mxPoint x="554" y="589" as="targetPoint" />
          </mxGeometry>
        </mxCell>
        <mxCell id="4p-bsqp2JKnxe7APMp1o-18" value="T" style="rounded=0;whiteSpace=wrap;html=1;" vertex="1" parent="1">
          <mxGeometry x="415" y="559" width="90" height="60" as="geometry" />
        </mxCell>
        <mxCell id="4p-bsqp2JKnxe7APMp1o-7" style="edgeStyle=orthogonalEdgeStyle;rounded=0;orthogonalLoop=1;jettySize=auto;html=1;exitX=0.5;exitY=1;exitDx=0;exitDy=0;" edge="1" parent="1" source="4p-bsqp2JKnxe7APMp1o-5">
          <mxGeometry relative="1" as="geometry">
            <mxPoint x="214" y="555" as="targetPoint" />
          </mxGeometry>
        </mxCell>
        <mxCell id="4p-bsqp2JKnxe7APMp1o-5" value="input image" style="rounded=0;whiteSpace=wrap;html=1;" vertex="1" parent="1">
          <mxGeometry x="154" y="395" width="120" height="60" as="geometry" />
        </mxCell>
        <mxCell id="4p-bsqp2JKnxe7APMp1o-6" value="reference image" style="rounded=0;whiteSpace=wrap;html=1;" vertex="1" parent="1">
          <mxGeometry x="304" y="395" width="120" height="60" as="geometry" />
        </mxCell>
        <mxCell id="4p-bsqp2JKnxe7APMp1o-8" value="Fmask 4.0" style="text;html=1;strokeColor=none;fillColor=none;align=center;verticalAlign=middle;whiteSpace=wrap;rounded=0;" vertex="1" parent="1">
          <mxGeometry x="174" y="505" width="40" height="20" as="geometry" />
        </mxCell>
        <mxCell id="4p-bsqp2JKnxe7APMp1o-10" value="cloud mask" style="rounded=0;whiteSpace=wrap;html=1;" vertex="1" parent="1">
          <mxGeometry x="154" y="555" width="120" height="60" as="geometry" />
        </mxCell>
        <mxCell id="4p-bsqp2JKnxe7APMp1o-27" style="edgeStyle=orthogonalEdgeStyle;rounded=0;orthogonalLoop=1;jettySize=auto;html=1;exitX=0;exitY=0;exitDx=0;exitDy=0;endArrow=block;endFill=1;" edge="1" parent="1" source="4p-bsqp2JKnxe7APMp1o-12">
          <mxGeometry relative="1" as="geometry">
            <mxPoint x="394" y="585" as="targetPoint" />
          </mxGeometry>
        </mxCell>
        <mxCell id="4p-bsqp2JKnxe7APMp1o-12" value="" style="shape=partialRectangle;whiteSpace=wrap;html=1;bottom=0;right=0;fillColor=none;direction=west;" vertex="1" parent="1">
          <mxGeometry x="274" y="455" width="90" height="130" as="geometry" />
        </mxCell>
        <mxCell id="4p-bsqp2JKnxe7APMp1o-19" value="P" style="text;html=1;strokeColor=none;fillColor=none;align=center;verticalAlign=middle;whiteSpace=wrap;rounded=0;" vertex="1" parent="1">
          <mxGeometry x="385" y="539" width="40" height="20" as="geometry" />
        </mxCell>
        <mxCell id="4p-bsqp2JKnxe7APMp1o-33" style="edgeStyle=orthogonalEdgeStyle;rounded=0;orthogonalLoop=1;jettySize=auto;html=1;exitX=0.5;exitY=1;exitDx=0;exitDy=0;endArrow=block;endFill=1;" edge="1" parent="1" source="4p-bsqp2JKnxe7APMp1o-31">
          <mxGeometry relative="1" as="geometry">
            <mxPoint x="614" y="665" as="targetPoint" />
          </mxGeometry>
        </mxCell>
        <mxCell id="4p-bsqp2JKnxe7APMp1o-31" value="BPNet" style="rounded=1;whiteSpace=wrap;html=1;" vertex="1" parent="1">
          <mxGeometry x="554" y="559" width="120" height="60" as="geometry" />
        </mxCell>
        <mxCell id="4p-bsqp2JKnxe7APMp1o-32" value="train" style="text;html=1;strokeColor=none;fillColor=none;align=center;verticalAlign=middle;whiteSpace=wrap;rounded=0;" vertex="1" parent="1">
          <mxGeometry x="511" y="565" width="40" height="20" as="geometry" />
        </mxCell>
        <mxCell id="4p-bsqp2JKnxe7APMp1o-48" style="edgeStyle=orthogonalEdgeStyle;rounded=0;orthogonalLoop=1;jettySize=auto;html=1;exitX=0.5;exitY=1;exitDx=0;exitDy=0;endArrow=none;endFill=0;" edge="1" parent="1" source="4p-bsqp2JKnxe7APMp1o-34">
          <mxGeometry relative="1" as="geometry">
            <mxPoint x="614" y="795" as="targetPoint" />
          </mxGeometry>
        </mxCell>
        <mxCell id="4p-bsqp2JKnxe7APMp1o-34" value="coverted&lt;br&gt;reference image" style="rounded=0;whiteSpace=wrap;html=1;" vertex="1" parent="1">
          <mxGeometry x="554" y="665" width="120" height="60" as="geometry" />
        </mxCell>
        <mxCell id="4p-bsqp2JKnxe7APMp1o-47" style="edgeStyle=orthogonalEdgeStyle;rounded=0;orthogonalLoop=1;jettySize=auto;html=1;entryX=0.5;entryY=1;entryDx=0;entryDy=0;endArrow=none;endFill=0;" edge="1" parent="1" target="4p-bsqp2JKnxe7APMp1o-10">
          <mxGeometry relative="1" as="geometry">
            <mxPoint x="614" y="795" as="sourcePoint" />
          </mxGeometry>
        </mxCell>
        <mxCell id="4p-bsqp2JKnxe7APMp1o-56" value="" style="endArrow=classic;html=1;" edge="1" parent="1">
          <mxGeometry width="50" height="50" relative="1" as="geometry">
            <mxPoint x="414" y="795" as="sourcePoint" />
            <mxPoint x="414" y="835" as="targetPoint" />
          </mxGeometry>
        </mxCell>
        <mxCell id="4p-bsqp2JKnxe7APMp1o-57" value="output image&lt;br&gt;(cloud removal)" style="rounded=0;whiteSpace=wrap;html=1;strokeWidth=1;" vertex="1" parent="1">
          <mxGeometry x="354" y="835" width="120" height="60" as="geometry" />
        </mxCell>
        <mxCell id="4p-bsqp2JKnxe7APMp1o-63" style="edgeStyle=none;rounded=0;orthogonalLoop=1;jettySize=auto;html=1;exitX=0.5;exitY=1;exitDx=0;exitDy=0;endArrow=none;endFill=0;strokeColor=none;" edge="1" parent="1" source="4p-bsqp2JKnxe7APMp1o-61">
          <mxGeometry relative="1" as="geometry">
            <mxPoint x="295" y="380" as="targetPoint" />
          </mxGeometry>
        </mxCell>
        <mxCell id="4p-bsqp2JKnxe7APMp1o-65" style="edgeStyle=none;rounded=0;orthogonalLoop=1;jettySize=auto;html=1;exitX=0.5;exitY=1;exitDx=0;exitDy=0;endArrow=classic;endFill=1;startArrow=none;startFill=0;" edge="1" parent="1" source="4p-bsqp2JKnxe7APMp1o-61">
          <mxGeometry relative="1" as="geometry">
            <mxPoint x="289.16666666666674" y="390" as="targetPoint" />
          </mxGeometry>
        </mxCell>
        <mxCell id="4p-bsqp2JKnxe7APMp1o-61" value="&lt;span&gt;preprocessing&lt;/span&gt;" style="rhombus;whiteSpace=wrap;html=1;strokeWidth=1;" vertex="1" parent="1">
          <mxGeometry x="244" y="260" width="90" height="80" as="geometry" />
        </mxCell>
      </root>
    </mxGraphModel>
  </diagram>
</mxfile>
